# xmcd
#
# Track frame offsets: 
#        150
#        14615
#        34848
#        50623
#        65106
#        81030
#        101079
#        130972
#        152690
#        173811
#        189305
#        207259
#        230201
#
# Disc length: 3368 seconds
#
# Revision: 1
# Processed by: cddbd v1.5.2PL0 Copyright (c) Steve Scherf et al.
# Submitted via: ExactAudioCopy v1.1
#
DISCID=b70d260d
DTITLE=李宗盛 - 爱的代价
DYEAR=2000
DGENRE=Blues
TTITLE0=寂寞难耐
TTITLE1=爱的代价
TTITLE2=因为寂寞
TTITLE3=爱情少尉
TTITLE4=锁上记忆
TTITLE5=如风往事
TTITLE6=给所有单身女子
TTITLE7=听见有人叫你宝贝
TTITLE8=我是真的爱你
TTITLE9=那一夜我喝了酒
TTITLE10=忙与盲
TTITLE11=阿宗三件事
TTITLE12=这样爱你对不对
EXTD=YEAR: 2000
EXTT0=
EXTT1=
EXTT2=
EXTT3=
EXTT4=
EXTT5=
EXTT6=
EXTT7=
EXTT8=
EXTT9=
EXTT10=
EXTT11=
EXTT12=
PLAYORDER=
